<svg width="80" height="80" viewBox="0 0 80 80" fill="none" xmlns="http://www.w3.org/2000/svg">
  <!-- Woven texture pattern for backgrounds -->
  <defs>
    <pattern id="wovenBase" x="0" y="0" width="4" height="4" patternUnits="userSpaceOnUse">
      <rect width="4" height="4" fill="#8b5a3c"/>
      <rect x="0" y="0" width="2" height="4" fill="#b8824c"/>
      <rect x="0" y="0" width="4" height="2" fill="#d2691e"/>
    </pattern>
    
    <pattern id="wovenOverlay" x="0" y="0" width="8" height="8" patternUnits="userSpaceOnUse">
      <rect width="8" height="8" fill="transparent"/>
      <rect x="0" y="0" width="4" height="1" fill="#ffd700" opacity="0.3"/>
      <rect x="4" y="2" width="4" height="1" fill="#ffd700" opacity="0.3"/>
      <rect x="0" y="4" width="4" height="1" fill="#ffd700" opacity="0.3"/>
      <rect x="4" y="6" width="4" height="1" fill="#ffd700" opacity="0.3"/>
    </pattern>
  </defs>
  
  <!-- Base woven texture -->
  <rect width="80" height="80" fill="url(#wovenBase)"/>
  
  <!-- Golden thread overlay -->
  <rect width="80" height="80" fill="url(#wovenOverlay)"/>
  
  <!-- Texture variations -->
  <g opacity="0.4">
    <rect x="0" y="20" width="80" height="2" fill="#228b22"/>
    <rect x="0" y="40" width="80" height="2" fill="#dc143c"/>
    <rect x="0" y="60" width="80" height="2" fill="#1e3a8a"/>
    
    <rect x="20" y="0" width="2" height="80" fill="#228b22"/>
    <rect x="40" y="0" width="2" height="80" fill="#dc143c"/>
    <rect x="60" y="0" width="2" height="80" fill="#1e3a8a"/>
  </g>
</svg>
